<svg viewBox="0 0 36 36" xmlns="http://www.w3.org/2000/svg" fill="#fff">
  <path d="M24.75,22.25 L24.75,25 L22,25 L22,22.25 L24.75,22.25 Z M13.75,22.25 L13.75,25 L11,25 L11,22.25 L13.75,22.25 Z M22,19.5 L22,22.25 L19.25,22.25 L19.25,19.5 L22,19.5 Z M16.5,19.5 L16.5,22.25 L13.75,22.25 L13.75,19.5 L16.5,19.5 Z M19.25,19.5 L16.5,19.5 L16.5,16.5 L19.25,16.5 L19.25,19.5 Z M16.5,13.75 L16.5,16.5 L13.75,16.5 L13.75,13.75 L16.5,13.75 Z M22,13.75 L22,16.5 L19.25,16.5 L19.25,13.75 L22,13.75 Z M13.75,11 L13.75,13.75 L11,13.75 L11,11 L13.75,11 Z M24.75,11 L24.75,13.75 L22,13.75 L22,11 L24.75,11 Z"></path>
</svg>
